# xmcd CD database file
#
# Track frame offsets:
#	150
#	10311
#	18693
#	29639
#	45415
#	59816
#	71701
#	82334
#	97265
#	109920
#	121268
#	128187
#	142552
#	155681
#	168732
#	184604
#	198027
#	211449
#
# Disc length: 2964 seconds
#
# Revision: 0
# Processed by: cddbd v1.5PL3 Copyright (c) Steve Scherf et al.
# Submitted via: CDex 1.50beta10
#
DISCID=0c0b9212
DTITLE=Panhandle Alks - Bis zum letzten Atemzug
DYEAR=1900
DGENRE=Country
TTITLE0=Allein
TTITLE1=Rock'n Roll and Durchgeknallt
TTITLE2=Bogart and Bacall
TTITLE3=Es geht voran
TTITLE4=Tschüss
TTITLE5=Carpe diem
TTITLE6=Teddy Boy
TTITLE7=Engel
TTITLE8=Lauf Jimmy Lauf
TTITLE9=Bonnie Blue
TTITLE10=Alkabilly Twist
TTITLE11=Tatanka
TTITLE12=Weit weit fort
TTITLE13=Granada
TTITLE14=Düsseldorf
TTITLE15=Du bist schuld
TTITLE16=und die Worte die er sprach
TTITLE17=Bis zum letzten Atemzug
EXTD=
EXTT0=
EXTT1=
EXTT2=
EXTT3=
EXTT4=
EXTT5=
EXTT6=
EXTT7=
EXTT8=
EXTT9=
EXTT10=
EXTT11=
EXTT12=
EXTT13=
EXTT14=
EXTT15=
EXTT16=
EXTT17=
PLAYORDER=
